<?xml version="1.0" encoding="UTF-8" standalone="no"?>
<!-- Created with Inkscape (http://www.inkscape.org/) -->

<svg
   width="2500"
   height="2500"
   viewBox="0 0 661.45832 661.45834"
   version="1.1"
   id="svg1"
   xml:space="preserve"
   inkscape:version="1.4.3 (0d15f75, 2025-12-25)"
   sodipodi:docname="icon-inner.svg"
   inkscape:export-filename="icon-inner.png"
   inkscape:export-xdpi="96"
   inkscape:export-ydpi="96"
   xmlns:inkscape="http://www.inkscape.org/namespaces/inkscape"
   xmlns:sodipodi="http://sodipodi.sourceforge.net/DTD/sodipodi-0.dtd"
   xmlns="http://www.w3.org/2000/svg"
   xmlns:svg="http://www.w3.org/2000/svg"><sodipodi:namedview
     id="namedview1"
     pagecolor="#ffffff"
     bordercolor="#000000"
     borderopacity="0.25"
     inkscape:showpageshadow="2"
     inkscape:pageopacity="0.0"
     inkscape:pagecheckerboard="0"
     inkscape:deskcolor="#d1d1d1"
     inkscape:document-units="mm"
     inkscape:zoom="0.22022002"
     inkscape:cx="488.14817"
     inkscape:cy="1605.2128"
     inkscape:window-width="1800"
     inkscape:window-height="1102"
     inkscape:window-x="0"
     inkscape:window-y="39"
     inkscape:window-maximized="1"
     inkscape:current-layer="layer3" /><defs
     id="defs1"><inkscape:path-effect
       effect="bspline"
       id="path-effect18"
       is_visible="true"
       lpeversion="1.3"
       weight="42"
       steps="2"
       helper_size="0"
       apply_no_weight="true"
       apply_with_weight="true"
       only_selected="false"
       uniform="false" /><inkscape:path-effect
       effect="bspline"
       id="path-effect16"
       is_visible="true"
       lpeversion="1.3"
       weight="42"
       steps="2"
       helper_size="0"
       apply_no_weight="true"
       apply_with_weight="true"
       only_selected="false"
       uniform="false" /><inkscape:path-effect
       effect="bspline"
       id="path-effect14"
       is_visible="true"
       lpeversion="1.3"
       weight="42"
       steps="2"
       helper_size="0"
       apply_no_weight="true"
       apply_with_weight="true"
       only_selected="false"
       uniform="false" /><inkscape:path-effect
       effect="bspline"
       id="path-effect13"
       is_visible="true"
       lpeversion="1.3"
       weight="32"
       steps="2"
       helper_size="0"
       apply_no_weight="true"
       apply_with_weight="true"
       only_selected="false"
       uniform="false" /><inkscape:path-effect
       effect="bspline"
       id="path-effect12"
       is_visible="true"
       lpeversion="1.3"
       weight="42"
       steps="2"
       helper_size="0"
       apply_no_weight="true"
       apply_with_weight="true"
       only_selected="false"
       uniform="false" /><inkscape:path-effect
       effect="fillet_chamfer"
       id="path-effect11"
       is_visible="true"
       lpeversion="1"
       nodesatellites_param="F,0,0,1,0,0,0,1 @ F,0,0,1,0,0,0,1 @ F,0,0,1,0,0,0,1 @ F,0,0,1,0,0,0,1 @ F,0,0,1,0,0,0,1 @ F,0,0,1,0,0,0,1 @ F,0,0,1,0,0,0,1 @ F,0,0,1,0,0,0,1"
       radius="0"
       unit="px"
       method="auto"
       mode="F"
       chamfer_steps="1"
       flexible="false"
       use_knot_distance="true"
       apply_no_radius="true"
       apply_with_radius="true"
       only_selected="false"
       hide_knots="false" /></defs><g
     inkscape:groupmode="layer"
     id="layer3"
     inkscape:label="Layer 3"
     transform="translate(15.847923,17.498839)"><path
       style="display:inline;fill:none;stroke:#1c1b19;stroke-width:26.3877;stroke-linecap:square;stroke-linejoin:miter;stroke-dasharray:none;stroke-opacity:1"
       d="m -683.93969,249.19428 c 67.39002,0 93.0624,0 126.75741,32.00085 33.69501,32.00085 33.69501,56.38244 33.69501,120.38414 0,64.0017 0,88.38329 -33.69501,120.38414 -33.69501,32.00085 -59.36739,32.00085 -126.75741,32.00085 -67.39002,0 -93.0624,0 -126.75741,-32.00085 -33.69501,-32.00085 -33.69501,-56.38244 -33.69501,-120.38414 0,-64.0017 0,-88.38329 33.69501,-120.38414 33.69501,-32.00085 59.36739,-32.00085 126.75741,-32.00085 z"
       id="path11"
       sodipodi:nodetypes="ccccccccc"
       transform="matrix(1.8133376,0,0,1.8917206,1555.0948,-446.44545)"
       inkscape:original-d="m -683.93969,249.19428 c 67.39002,0 93.0624,0 160.45242,0 0,64.0017 0,88.38329 0,152.38499 0,64.0017 0,88.38329 0,152.38499 -67.39002,0 -93.0624,0 -160.45242,0 -67.39002,0 -93.0624,0 -160.45242,0 0,-64.0017 0,-88.38329 0,-152.38499 0,-64.0017 0,-88.38329 0,-152.38499 67.39002,0 93.0624,0 160.45242,0 z"
       inkscape:path-effect="#path-effect14" /><path
       style="display:inline;fill:none;stroke:#c45f38;stroke-width:38.918;stroke-linecap:square;stroke-linejoin:miter;stroke-dasharray:none;stroke-opacity:1"
       d="m -683.93969,249.19428 c 67.39002,0 93.0624,0 126.75741,32.00085 33.69501,32.00085 33.69501,56.38244 33.69501,120.38414 0,64.0017 0,88.38329 -33.69501,120.38414 -33.69501,32.00085 -59.36739,32.00085 -126.75741,32.00085 -67.39002,0 -93.0624,0 -126.75741,-32.00085 -33.69501,-32.00085 -33.69501,-56.38244 -33.69501,-120.38414 0,-64.0017 0,-88.38329 33.69501,-120.38414 33.69501,-32.00085 59.36739,-32.00085 126.75741,-32.00085 z"
       id="path14"
       sodipodi:nodetypes="ccccccccc"
       transform="matrix(1.2295412,0,0,1.2826112,1189.889,-168.48769)"
       inkscape:original-d="m -683.93969,249.19428 c 67.39002,0 93.0624,0 160.45242,0 0,64.0017 0,88.38329 0,152.38499 0,64.0017 0,88.38329 0,152.38499 -67.39002,0 -93.0624,0 -160.45242,0 -67.39002,0 -93.0624,0 -160.45242,0 0,-64.0017 0,-88.38329 0,-152.38499 0,-64.0017 0,-88.38329 0,-152.38499 67.39002,0 93.0624,0 160.45242,0 z"
       inkscape:path-effect="#path-effect16" /><path
       style="display:inline;fill:none;stroke:#1c1b19;stroke-width:78.3702;stroke-linecap:square;stroke-linejoin:miter;stroke-dasharray:none;stroke-opacity:1"
       d="m -683.93969,249.19428 c 67.39002,0 93.0624,0 126.75741,32.00085 33.69501,32.00085 33.69501,56.38244 33.69501,120.38414 0,64.0017 0,88.38329 -33.69501,120.38414 -33.69501,32.00085 -59.36739,32.00085 -126.75741,32.00085 -67.39002,0 -93.0624,0 -126.75741,-32.00085 -33.69501,-32.00085 -33.69501,-56.38244 -33.69501,-120.38414 0,-64.0017 0,-88.38329 33.69501,-120.38414 33.69501,-32.00085 59.36739,-32.00085 126.75741,-32.00085 z"
       id="path16"
       sodipodi:nodetypes="ccccccccc"
       transform="matrix(0.61059702,0,0,0.63691452,801.77771,122.6797)"
       inkscape:original-d="m -683.93969,249.19428 c 67.39002,0 93.0624,0 160.45242,0 0,64.0017 0,88.38329 0,152.38499 0,64.0017 0,88.38329 0,152.38499 -67.39002,0 -93.0624,0 -160.45242,0 -67.39002,0 -93.0624,0 -160.45242,0 0,-64.0017 0,-88.38329 0,-152.38499 0,-64.0017 0,-88.38329 0,-152.38499 67.39002,0 93.0624,0 160.45242,0 z"
       inkscape:path-effect="#path-effect18" /><path
       style="display:inline;opacity:1;fill:none;stroke:#1c1b19;stroke-width:30.5904;stroke-linecap:round;stroke-linejoin:round;stroke-dasharray:none;stroke-opacity:1"
       d="m 332.19008,377.20256 38.32837,36.0931 65.62381,-69.68795"
       id="path18" /><path
       style="display:inline;opacity:1;fill:none;stroke:#c45f38;stroke-width:30.5904;stroke-linecap:round;stroke-linejoin:round;stroke-dasharray:none;stroke-opacity:1"
       d="m 206.14395,253.55843 38.32837,36.0931 65.62381,-69.68795"
       id="path19" /><path
       style="display:inline;opacity:1;fill:none;stroke:#1c1b19;stroke-width:30.5904;stroke-linecap:round;stroke-linejoin:round;stroke-dasharray:none;stroke-opacity:1"
       d="m 97.348247,145.08269 38.328373,36.0931 65.62381,-69.68796"
       id="path20" /></g></svg>
